<?xml version="1.0" encoding="UTF-8" standalone="no"?><!-- Generator: Gravit.io --><svg xmlns="http://www.w3.org/2000/svg" xmlns:xlink="http://www.w3.org/1999/xlink" style="isolation:isolate" viewBox="0 0 500 500" width="500pt" height="500pt"><defs><clipPath id="_clipPath_bhjv4Cleb6r8jpG7L47tV37YmkrcKmsU"><rect width="500" height="500"/></clipPath></defs><g clip-path="url(#_clipPath_bhjv4Cleb6r8jpG7L47tV37YmkrcKmsU)"><defs><filter id="SkyYwoYu3lMYZV8lFb1YYyIfGx8Qjxor" x="-200%" y="-200%" width="400%" height="400%" filterUnits="objectBoundingBox" color-interpolation-filters="sRGB"><feGaussianBlur xmlns="http://www.w3.org/2000/svg" in="SourceGraphic" stdDeviation="0"/><feOffset xmlns="http://www.w3.org/2000/svg" dx="0" dy="0" result="pf_100_offsetBlur"/><feFlood xmlns="http://www.w3.org/2000/svg" flood-color="#000000" flood-opacity="0.65"/><feComposite xmlns="http://www.w3.org/2000/svg" in2="pf_100_offsetBlur" operator="in" result="pf_100_dropShadow"/><feBlend xmlns="http://www.w3.org/2000/svg" in="SourceGraphic" in2="pf_100_dropShadow" mode="normal"/></filter></defs><g filter="url(#SkyYwoYu3lMYZV8lFb1YYyIfGx8Qjxor)"><linearGradient id="_lgradient_2" x1="0.1388052558641577" y1="0.145821594129246" x2="0.9138681788983485" y2="0.8146771728626205" gradientTransform="matrix(251.812,0,0,239.221,21.277,41)" gradientUnits="userSpaceOnUse"><stop offset="0%" stop-opacity="1" style="stop-color:rgb(91,110,120)"/><stop offset="98.75%" stop-opacity="1" style="stop-color:rgb(59,82,92)"/></linearGradient><path d=" M 147.184 41 C 77.759 41 21.278 91.832 21.278 154.315 C 21.278 176.16 28.19 197.316 41.288 215.606 C 38.808 243.041 32.16 263.408 22.508 273.057 C 21.232 274.333 20.913 276.284 21.718 277.896 C 22.436 279.335 23.901 280.221 25.475 280.221 C 25.668 280.221 25.865 280.208 26.062 280.179 C 27.762 279.94 67.246 274.253 95.801 257.776 C 112.022 264.319 129.297 267.63 147.184 267.63 C 216.608 267.63 273.089 216.798 273.089 154.315 C 273.089 91.832 216.608 41 147.184 41 Z " fill="url(#_lgradient_2)"/></g><path d=" M 191.549 89.663 C 177.226 72.385 143.654 72.586 124.228 81.627 C 116.35 86.348 112.35 98.417 117.603 108.062 C 122.856 117.706 143.207 128.84 152.159 139.488 C 117.052 144.76 98.982 165.103 99.877 195.742 C 101.668 223.115 121.513 239.668 151.443 239.941 C 178.568 238.183 200.636 214.376 203.008 191.724 C 203.461 164.559 189.622 143.941 161.469 129.844 C 134.07 113.237 120.708 100.387 122.795 96.092 C 124.115 86.078 134.998 81.237 149.343 84.847 C 162.812 87.654 174.182 106.439 182.239 105.736 C 192.289 104.102 193.877 94.887 191.549 89.663 Z  M 158.605 145.113 C 130.539 150.337 121.408 170.076 122.795 192.527 C 124.965 217.555 134.522 230.689 151.443 231.905 C 169.202 231.813 178.758 218.696 180.09 192.527 C 178.956 171.806 171.496 158.172 158.605 145.113 Z " fill-rule="evenodd" fill="rgb(255,255,255)"/><g filter="url(#utGnDJjH9ZiwBKZwUMELGpeXvpDL53JV)"><mask id="_mask_M7RIfVbBloQC5ZHr6AI6FKgpyVFCxHcb" x="-200%" y="-200%" width="400%" height="400%"><rect x="-200%" y="-200%" width="400%" height="400%" style="fill:white;"/><path d=" M 321.675 160.61 C 408.271 160.61 478.722 224.016 478.722 301.953 C 478.722 329.201 470.1 355.59 453.762 378.403 C 456.856 412.624 465.148 438.029 477.188 450.064 C 478.78 451.655 479.178 454.09 478.172 456.1 C 477.277 457.895 475.45 459 473.487 459 C 473.246 459 473 458.984 472.754 458.948 C 470.634 458.649 421.384 451.556 385.766 431.004 C 365.533 439.165 343.986 443.295 321.675 443.295 C 235.079 443.295 164.628 379.89 164.628 301.953 C 164.628 224.016 235.079 160.61 321.675 160.61 Z " fill="black" stroke="none"/></mask><path d=" M 321.675 160.61 C 408.271 160.61 478.722 224.016 478.722 301.953 C 478.722 329.201 470.1 355.59 453.762 378.403 C 456.856 412.624 465.148 438.029 477.188 450.064 C 478.78 451.655 479.178 454.09 478.172 456.1 C 477.277 457.895 475.45 459 473.487 459 C 473.246 459 473 458.984 472.754 458.948 C 470.634 458.649 421.384 451.556 385.766 431.004 C 365.533 439.165 343.986 443.295 321.675 443.295 C 235.079 443.295 164.628 379.89 164.628 301.953 C 164.628 224.016 235.079 160.61 321.675 160.61 Z " fill="rgb(255,255,255)"/><path d=" M 321.675 160.61 C 408.271 160.61 478.722 224.016 478.722 301.953 C 478.722 329.201 470.1 355.59 453.762 378.403 C 456.856 412.624 465.148 438.029 477.188 450.064 C 478.78 451.655 479.178 454.09 478.172 456.1 C 477.277 457.895 475.45 459 473.487 459 C 473.246 459 473 458.984 472.754 458.948 C 470.634 458.649 421.384 451.556 385.766 431.004 C 365.533 439.165 343.986 443.295 321.675 443.295 C 235.079 443.295 164.628 379.89 164.628 301.953 C 164.628 224.016 235.079 160.61 321.675 160.61 Z " fill="rgb(255,255,255)" mask="url(#_mask_M7RIfVbBloQC5ZHr6AI6FKgpyVFCxHcb)" vector-effect="non-scaling-stroke" stroke-width="24" stroke="rgb(54,78,90)" stroke-linejoin="miter" stroke-linecap="butt" stroke-miterlimit="4"/></g><defs><filter id="utGnDJjH9ZiwBKZwUMELGpeXvpDL53JV" x="-200%" y="-200%" width="400%" height="400%" filterUnits="objectBoundingBox" color-interpolation-filters="sRGB"><feGaussianBlur xmlns="http://www.w3.org/2000/svg" in="SourceGraphic" stdDeviation="0"/><feOffset xmlns="http://www.w3.org/2000/svg" dx="0" dy="0" result="pf_100_offsetBlur"/><feFlood xmlns="http://www.w3.org/2000/svg" flood-color="#000000" flood-opacity="0.55"/><feComposite xmlns="http://www.w3.org/2000/svg" in2="pf_100_offsetBlur" operator="in" result="pf_100_dropShadow"/><feBlend xmlns="http://www.w3.org/2000/svg" in="SourceGraphic" in2="pf_100_dropShadow" mode="normal"/></filter></defs><path d=" M 251.48 268.148 L 251.48 268.148 L 251.48 268.148 Q 251.48 282.252 243.452 289.753 L 243.452 289.753 L 243.452 289.753 Q 235.423 297.255 220.264 297.255 L 220.264 297.255 L 204.09 297.255 L 204.09 240.136 L 222.022 240.136 L 222.022 240.136 Q 236.009 240.136 243.745 247.52 L 243.745 247.52 L 243.745 247.52 Q 251.48 254.904 251.48 268.148 Z  M 238.9 268.461 L 238.9 268.461 L 238.9 268.461 Q 238.9 250.059 222.647 250.059 L 222.647 250.059 L 216.201 250.059 L 216.201 287.253 L 221.397 287.253 L 221.397 287.253 Q 238.9 287.253 238.9 268.461 Z  M 280.47 261.233 L 280.47 261.233 L 280.47 261.233 Q 276.68 261.233 274.531 263.636 L 274.531 263.636 L 274.531 263.636 Q 272.382 266.038 272.07 270.453 L 272.07 270.453 L 288.791 270.453 L 288.791 270.453 Q 288.713 266.038 286.486 263.636 L 286.486 263.636 L 286.486 263.636 Q 284.259 261.233 280.47 261.233 Z  M 282.15 298.036 L 282.15 298.036 L 282.15 298.036 Q 271.601 298.036 265.662 292.215 L 265.662 292.215 L 265.662 292.215 Q 259.724 286.393 259.724 275.727 L 259.724 275.727 L 259.724 275.727 Q 259.724 264.749 265.213 258.752 L 265.213 258.752 L 265.213 258.752 Q 270.702 252.755 280.391 252.755 L 280.391 252.755 L 280.391 252.755 Q 289.651 252.755 294.808 258.029 L 294.808 258.029 L 294.808 258.029 Q 299.965 263.304 299.965 272.602 L 299.965 272.602 L 299.965 278.384 L 271.796 278.384 L 271.796 278.384 Q 271.992 283.463 274.805 286.315 L 274.805 286.315 L 274.805 286.315 Q 277.618 289.167 282.697 289.167 L 282.697 289.167 L 282.697 289.167 Q 286.643 289.167 290.159 288.347 L 290.159 288.347 L 290.159 288.347 Q 293.675 287.526 297.504 285.729 L 297.504 285.729 L 297.504 294.949 L 297.504 294.949 Q 294.378 296.512 290.823 297.274 L 290.823 297.274 L 290.823 297.274 Q 287.268 298.036 282.15 298.036 Z  M 321.57 236.463 L 321.57 297.255 L 309.654 297.255 L 309.654 236.463 L 321.57 236.463 L 321.57 236.463 Z  M 352.474 288.542 L 352.474 288.542 L 352.474 288.542 Q 355.599 288.542 359.975 287.175 L 359.975 287.175 L 359.975 296.043 L 359.975 296.043 Q 355.521 298.036 349.036 298.036 L 349.036 298.036 L 349.036 298.036 Q 341.886 298.036 338.624 294.422 L 338.624 294.422 L 338.624 294.422 Q 335.362 290.808 335.362 283.58 L 335.362 283.58 L 335.362 262.522 L 329.658 262.522 L 329.658 257.482 L 336.221 253.497 L 339.659 244.277 L 347.278 244.277 L 347.278 253.575 L 359.506 253.575 L 359.506 262.522 L 347.278 262.522 L 347.278 283.58 L 347.278 283.58 Q 347.278 286.12 348.704 287.331 L 348.704 287.331 L 348.704 287.331 Q 350.13 288.542 352.474 288.542 Z  M 404.865 297.255 L 396.544 297.255 L 394.239 291.316 L 393.926 291.316 L 393.926 291.316 Q 390.918 295.106 387.734 296.571 L 387.734 296.571 L 387.734 296.571 Q 384.55 298.036 379.431 298.036 L 379.431 298.036 L 379.431 298.036 Q 373.141 298.036 369.527 294.442 L 369.527 294.442 L 369.527 294.442 Q 365.914 290.847 365.914 284.205 L 365.914 284.205 L 365.914 284.205 Q 365.914 277.251 370.778 273.95 L 370.778 273.95 L 370.778 273.95 Q 375.642 270.648 385.448 270.297 L 385.448 270.297 L 393.028 270.062 L 393.028 268.148 L 393.028 268.148 Q 393.028 261.506 386.23 261.506 L 386.23 261.506 L 386.23 261.506 Q 380.994 261.506 373.923 264.671 L 373.923 264.671 L 369.977 256.623 L 369.977 256.623 Q 377.517 252.677 386.698 252.677 L 386.698 252.677 L 386.698 252.677 Q 395.489 252.677 400.177 256.506 L 400.177 256.506 L 400.177 256.506 Q 404.865 260.334 404.865 268.148 L 404.865 268.148 L 404.865 297.255 L 404.865 297.255 Z  M 393.028 280.611 L 393.028 277.017 L 388.417 277.173 L 388.417 277.173 Q 383.221 277.329 380.682 279.048 L 380.682 279.048 L 380.682 279.048 Q 378.142 280.767 378.142 284.284 L 378.142 284.284 L 378.142 284.284 Q 378.142 289.324 383.924 289.324 L 383.924 289.324 L 383.924 289.324 Q 388.066 289.324 390.547 286.94 L 390.547 286.94 L 390.547 286.94 Q 393.028 284.557 393.028 280.611 L 393.028 280.611 L 393.028 280.611 Z " fill-rule="evenodd" fill="rgb(56,80,91)"/><path d=" M 260.163 317.072 L 260.163 364.111 L 248.052 364.111 L 248.052 317.072 L 232.541 317.072 L 232.541 306.992 L 275.673 306.992 L 275.673 317.072 L 260.163 317.072 L 260.163 317.072 Z  M 319.587 364.111 L 311.265 364.111 L 308.96 358.173 L 308.648 358.173 L 308.648 358.173 Q 305.639 361.963 302.455 363.428 L 302.455 363.428 L 302.455 363.428 Q 299.271 364.893 294.153 364.893 L 294.153 364.893 L 294.153 364.893 Q 287.863 364.893 284.249 361.298 L 284.249 361.298 L 284.249 361.298 Q 280.635 357.704 280.635 351.062 L 280.635 351.062 L 280.635 351.062 Q 280.635 344.108 285.499 340.807 L 285.499 340.807 L 285.499 340.807 Q 290.363 337.505 300.17 337.154 L 300.17 337.154 L 307.749 336.919 L 307.749 335.005 L 307.749 335.005 Q 307.749 328.363 300.951 328.363 L 300.951 328.363 L 300.951 328.363 Q 295.716 328.363 288.644 331.528 L 288.644 331.528 L 284.698 323.48 L 284.698 323.48 Q 292.239 319.534 301.42 319.534 L 301.42 319.534 L 301.42 319.534 Q 310.21 319.534 314.899 323.362 L 314.899 323.362 L 314.899 323.362 Q 319.587 327.191 319.587 335.005 L 319.587 335.005 L 319.587 364.111 L 319.587 364.111 Z  M 307.749 347.468 L 307.749 343.874 L 303.139 344.03 L 303.139 344.03 Q 297.943 344.186 295.403 345.905 L 295.403 345.905 L 295.403 345.905 Q 292.864 347.624 292.864 351.14 L 292.864 351.14 L 292.864 351.14 Q 292.864 356.18 298.646 356.18 L 298.646 356.18 L 298.646 356.18 Q 302.787 356.18 305.268 353.797 L 305.268 353.797 L 305.268 353.797 Q 307.749 351.414 307.749 347.468 L 307.749 347.468 L 307.749 347.468 Z  M 343.771 303.32 L 343.771 364.111 L 331.855 364.111 L 331.855 303.32 L 343.771 303.32 L 343.771 303.32 Z  M 367.564 340.357 L 367.72 340.357 L 372.916 333.716 L 385.145 320.432 L 398.585 320.432 L 381.238 339.381 L 399.639 364.111 L 385.887 364.111 L 373.307 346.413 L 368.189 350.515 L 368.189 364.111 L 356.273 364.111 L 356.273 303.32 L 368.189 303.32 L 368.189 330.434 L 367.564 340.357 L 367.564 340.357 Z  M 436.364 351.14 L 436.364 351.14 L 436.364 351.14 Q 436.364 357.86 431.696 361.376 L 431.696 361.376 L 431.696 361.376 Q 427.027 364.893 417.728 364.893 L 417.728 364.893 L 417.728 364.893 Q 412.962 364.893 409.602 364.248 L 409.602 364.248 L 409.602 364.248 Q 406.242 363.603 403.312 362.353 L 403.312 362.353 L 403.312 352.508 L 403.312 352.508 Q 406.633 354.071 410.794 355.125 L 410.794 355.125 L 410.794 355.125 Q 414.955 356.18 418.119 356.18 L 418.119 356.18 L 418.119 356.18 Q 424.605 356.18 424.605 352.43 L 424.605 352.43 L 424.605 352.43 Q 424.605 351.023 423.745 350.144 L 423.745 350.144 L 423.745 350.144 Q 422.886 349.265 420.776 348.152 L 420.776 348.152 L 420.776 348.152 Q 418.666 347.038 415.15 345.554 L 415.15 345.554 L 415.15 345.554 Q 410.11 343.444 407.746 341.647 L 407.746 341.647 L 407.746 341.647 Q 405.383 339.849 404.308 337.525 L 404.308 337.525 L 404.308 337.525 Q 403.234 335.2 403.234 331.801 L 403.234 331.801 L 403.234 331.801 Q 403.234 325.98 407.746 322.796 L 407.746 322.796 L 407.746 322.796 Q 412.259 319.612 420.541 319.612 L 420.541 319.612 L 420.541 319.612 Q 428.433 319.612 435.896 323.05 L 435.896 323.05 L 432.301 331.645 L 432.301 331.645 Q 429.019 330.238 426.167 329.34 L 426.167 329.34 L 426.167 329.34 Q 423.315 328.441 420.346 328.441 L 420.346 328.441 L 420.346 328.441 Q 415.072 328.441 415.072 331.293 L 415.072 331.293 L 415.072 331.293 Q 415.072 332.895 416.771 334.067 L 416.771 334.067 L 416.771 334.067 Q 418.471 335.239 424.214 337.544 L 424.214 337.544 L 424.214 337.544 Q 429.332 339.615 431.715 341.412 L 431.715 341.412 L 431.715 341.412 Q 434.098 343.209 435.231 345.554 L 435.231 345.554 L 435.231 345.554 Q 436.364 347.898 436.364 351.14 Z " fill-rule="evenodd" fill="rgb(57,81,93)"/></g></svg>