<svg width="24" height="24" viewBox="0 0 24 24" fill="none" xmlns="http://www.w3.org/2000/svg">
<path fill-rule="evenodd" clip-rule="evenodd" d="M7.99994 10.0002C7.99994 8.93931 8.42137 7.9219 9.17152 7.17175C9.92166 6.4216 10.9391 6.00018 11.9999 6.00018C13.0608 6.00018 14.0782 6.4216 14.8284 7.17175C15.5785 7.9219 15.9999 8.93931 15.9999 10.0002V11.0002H16.9999C17.4596 11.0002 17.9147 11.0907 18.3393 11.2666C18.764 11.4425 19.1498 11.7003 19.4748 12.0253C19.7998 12.3503 20.0576 12.7361 20.2335 13.1608C20.4094 13.5854 20.4999 14.0406 20.4999 14.5002C20.4999 14.9598 20.4094 15.4149 20.2335 15.8396C20.0576 16.2642 19.7998 16.65 19.4748 16.9751C19.1498 17.3001 18.764 17.5579 18.3393 17.7338C17.9147 17.9096 17.4596 18.0002 16.9999 18.0002H15.9999C15.7347 18.0002 15.4804 18.1055 15.2928 18.2931C15.1053 18.4806 14.9999 18.735 14.9999 19.0002C14.9999 19.2654 15.1053 19.5197 15.2928 19.7073C15.4804 19.8948 15.7347 20.0002 15.9999 20.0002H16.9999C18.3791 20.0019 19.7085 19.4855 20.7248 18.5533C21.7411 17.621 22.3701 16.341 22.4871 14.9668C22.6042 13.5927 22.2006 12.2247 21.3566 11.134C20.5125 10.0434 19.2895 9.30961 17.9299 9.07818C17.7103 7.66306 16.9919 6.37314 15.9044 5.44141C14.8169 4.50968 13.432 3.99756 11.9999 3.99756C10.5679 3.99756 9.18304 4.50968 8.09554 5.44141C7.00804 6.37314 6.28958 7.66306 6.06994 9.07818C4.71483 9.31475 3.49749 10.0504 2.65788 11.14C1.81827 12.2297 1.4173 13.5943 1.53401 14.965C1.65072 16.3357 2.27664 17.6129 3.28839 18.5449C4.30015 19.4769 5.62434 19.9961 6.99994 20.0002H7.99994C8.26516 20.0002 8.51952 19.8948 8.70705 19.7073C8.89459 19.5197 8.99994 19.2654 8.99994 19.0002C8.99994 18.735 8.89459 18.4806 8.70705 18.2931C8.51952 18.1055 8.26516 18.0002 7.99994 18.0002H6.99994C6.54032 18.0002 6.08519 17.9096 5.66055 17.7338C5.23591 17.5579 4.85008 17.3001 4.52507 16.9751C4.20007 16.65 3.94226 16.2642 3.76637 15.8396C3.59047 15.4149 3.49994 14.9598 3.49994 14.5002C3.49994 14.0406 3.59047 13.5854 3.76637 13.1608C3.94226 12.7361 4.20007 12.3503 4.52507 12.0253C4.85008 11.7003 5.23591 11.4425 5.66055 11.2666C6.08519 11.0907 6.54032 11.0002 6.99994 11.0002H7.99994V10.0002ZM15.7069 13.2932L12.7069 10.2932C12.5194 10.1057 12.2651 10.0004 11.9999 10.0004C11.7348 10.0004 11.4805 10.1057 11.2929 10.2932L8.29294 13.2932C8.19743 13.3854 8.12125 13.4958 8.06884 13.6178C8.01643 13.7398 7.98885 13.871 7.98769 14.0038C7.98654 14.1366 8.01184 14.2682 8.06212 14.3911C8.1124 14.514 8.18666 14.6257 8.28055 14.7196C8.37444 14.8135 8.48609 14.8877 8.60899 14.938C8.73189 14.9883 8.86357 15.0136 8.99635 15.0124C9.12912 15.0113 9.26034 14.9837 9.38235 14.9313C9.50435 14.8789 9.6147 14.8027 9.70694 14.7072L10.9999 13.4142V19.0002C10.9999 19.2654 11.1053 19.5197 11.2928 19.7073C11.4804 19.8948 11.7347 20.0002 11.9999 20.0002C12.2652 20.0002 12.5195 19.8948 12.7071 19.7073C12.8946 19.5197 12.9999 19.2654 12.9999 19.0002V13.4142L14.2929 14.7072C14.4815 14.8893 14.7341 14.9901 14.9963 14.9879C15.2585 14.9856 15.5094 14.8804 15.6948 14.695C15.8802 14.5096 15.9853 14.2588 15.9876 13.9966C15.9899 13.7344 15.8891 13.4818 15.7069 13.2932Z" fill="white"/>
</svg>
